<?xml version="1.0" standalone="no"?><!DOCTYPE svg PUBLIC "-//W3C//DTD SVG 1.1//EN" "http://www.w3.org/Graphics/SVG/1.1/DTD/svg11.dtd"><svg t="1754115072945" class="icon" viewBox="0 0 1216 1024" version="1.1" xmlns="http://www.w3.org/2000/svg" p-id="9553" xmlns:xlink="http://www.w3.org/1999/xlink" width="237.5" height="200"><path d="M605.952 301.12c-289.6 0-524.672 361.6-524.672 361.6S316.032 1024 605.952 1024s524.352-361.28 524.352-361.28-234.752-361.6-524.352-361.6z m13.504 567.2a205.504 205.504 0 0 1-205.44-205.632 205.504 205.504 0 0 1 205.44-205.632 205.504 205.504 0 0 1 205.408 205.632 205.504 205.504 0 0 1-205.44 205.632z m0-323.136a117.44 117.44 0 0 0-117.376 117.504 117.44 117.44 0 0 0 117.376 117.504 117.44 117.44 0 0 0 117.376-117.504 117.44 117.44 0 0 0-117.376-117.504zM666.688 0h-117.376v253.792h117.376V0zM262.336 349.28l-179.296-179.52L0 252.96l179.296 179.456 83.04-83.104zM1216 252.928l-83.04-83.136-179.296 179.488 83.04 83.104L1216 252.928z" fill="#ffffff" p-id="9554"></path></svg>