<?xml version="1.0" standalone="no"?><!DOCTYPE svg PUBLIC "-//W3C//DTD SVG 1.1//EN" "http://www.w3.org/Graphics/SVG/1.1/DTD/svg11.dtd"><svg t="1753803352087" class="icon" viewBox="0 0 1024 1024" version="1.1" xmlns="http://www.w3.org/2000/svg" p-id="19580" xmlns:xlink="http://www.w3.org/1999/xlink" width="200" height="200"><path d="M887.908 71.2c-4.663-3.004-21.416-11.368-41.345 7.388a1839.057 1839.057 0 0 0-7.41 7.01c-51.933 49.347-86.243 81.947-276.795 17.846C511.078 86.2 458.957 78.498 407.44 80.566c-41.265 1.645-82.178 9.54-121.591 23.448-67.349 23.757-107.203 56.938-108.864 58.335a23.525 23.525 0 0 0-3.836 4.108c-9.75 6.067-13.803 18.539-9.02 29.338l294.989 666.49c5.232 11.826 19.054 17.161 30.875 11.93 11.823-5.232 17.164-19.052 11.938-30.88L365.21 534.439l2.293-4.383c31.017-59.248 66.17-126.4 246.782-110.377 32.934 2.92 65.145-2.482 95.836-16.075a168.675 168.675 0 0 0 5.702-2.619c27.839-13.318 54.358-33.47 78.817-59.863 38.28-41.316 72.018-99.301 92.558-159.095 7.819-22.77 13.019-43.86 15.026-60.997 1.898-16.2 2.482-38.978-14.316-49.828z m-49.911 109.17c-17.49 45.662-42.7 88.788-70.978 121.436-45.074 52.02-95.06 75.989-148.597 71.237-92.426-8.194-161.577 3.592-211.405 36.055-31.674 20.636-51.157 46.65-65.722 71.318L214.05 192.922c13.173-9.483 44.495-29.893 89.178-45.403 79.468-27.574 161.638-27.475 244.201 0.297 97.723 32.875 166.955 43.832 217.875 34.483 38.025-6.982 63.756-24.617 86.202-44.35-2.855 11.653-7.18 25.895-13.508 42.42z m0 0" fill="#484848" p-id="19581"></path><path d="M826.763 618.476c-79.644-34.393-190.228-55.018-316.129-55.018-6.916 0-13.785 0.061-20.611 0.188v56.277a1067.52 1067.52 0 0 1 20.578-0.196c230.087 0 390.376 73.847 390.376 140.081 0 33.714-39.576 69.431-108.85 96.076v0.084c-68.671 26.173-165.216 45.035-278.734 45.035-230.087 0-390.368-73.85-390.368-140.085 0-33.71 39.574-70.302 108.835-96.95v-0.076a504.449 504.449 0 0 1 26.338-9.191v-58.868C139.334 630.356 63.996 689.656 63.996 759.775c-0.014 57.221 50.176 107.25 133.26 142.484 79.644 34.388 190.224 55.013 316.104 55.013 254.615 0 446.634-84.367 446.634-196.321 0.024-57.22-50.158-107.242-133.23-142.475z m0 0" fill="#484848" p-id="19582"></path></svg>